# Blender 3.4.1
# www.blender.org
mtllib baño_acabado.mtl
o Baño
v -2.500000 0.000000 2.500000
v -2.500000 4.500000 2.500000
v -2.500000 0.000000 -2.500000
v -2.500000 4.500000 -2.500000
v 2.500000 0.000000 2.500000
v 2.500000 4.500000 2.500000
v 2.500000 0.000000 -2.500000
v 2.500000 4.500000 -2.500000
v 2.500000 1.019697 2.500000
v 2.500000 1.019697 0.553754
v 2.500000 1.019697 -0.596766
v 0.174585 0.000000 2.500000
v 1.841252 0.000000 2.500000
v 1.855589 4.500000 2.500000
v 0.188923 4.500000 2.500000
v 2.500000 4.068136 -0.596766
v 2.500000 4.068136 2.500000
v 1.848421 3.850053 2.500000
v 0.181754 3.850053 2.500000
v 2.500000 1.019697 -2.500000
v 2.500000 4.068136 -2.500000
v -2.500000 0.000000 0.986308
v -2.500000 0.000000 0.718725
v 2.500000 4.068136 0.553754
v -0.930403 4.500000 0.718725
v -0.930403 0.000000 0.718725
v -0.930403 4.500000 0.986308
v -0.930403 0.000000 0.986308
v -2.500000 4.500000 0.718725
v -2.500000 4.500000 0.986308
v -2.497990 0.011985 2.501652
v 2.495318 0.011985 2.501652
v -2.497990 0.011985 -2.493220
v 2.495318 0.011985 -2.493220
vn 1.0000 -0.0000 -0.0000
vn -0.0000 -0.0000 -1.0000
vn -0.0000 -0.0000 1.0000
vn -1.0000 -0.0000 -0.0000
vn -0.0000 1.0000 -0.0000
vt 0.430089 0.000000
vt 0.860178 0.000000
vt 0.430089 0.430089
vt 0.860178 0.430089
vt 0.706957 0.430089
vt 0.000000 0.430089
vt 0.706956 0.860178
vt 0.000000 0.860178
vt 0.000000 0.000000
vt 0.860178 0.000000
vt 0.000000 0.430089
vt 0.860178 0.430089
vt 0.430089 0.430089
vt 0.430089 0.000000
vt 0.430089 0.860178
vt 0.430089 0.430089
vt 0.000000 0.097458
vt 0.860178 0.097458
vt 0.692766 0.097458
vt 0.593801 0.097458
vt 0.200027 0.000000
vt 0.056664 0.000000
vt 0.055431 0.430089
vt 0.198794 0.430089
vt 0.593801 0.388813
vt 0.000000 0.388813
vt 0.860178 0.388813
vt 0.056047 0.367970
vt 0.199410 0.367970
vt 0.430089 0.527547
vt 0.430089 0.097458
vt 0.430089 0.818902
vt 0.430089 0.388813
vt 0.841970 0.430089
vt 0.990382 0.000000
vt 0.430089 0.430089
vt 0.841970 0.430089
vt 0.692766 0.388813
vt 1.000000 0.860178
vt 0.706956 0.860178
vt 1.000000 0.430089
vt 0.706957 0.430089
vt 0.976983 0.860178
vt 0.976983 0.430089
vt 0.430089 0.860178
vt 0.841970 0.860178
vt 0.841970 0.860178
vt 0.990382 0.430089
vt 0.000000 0.000000
vt 1.000000 0.000000
vt 0.000000 1.000000
vt 1.000000 1.000000
s 0
usemtl Paredes
f 29/45/1 23/36/1 3/5/1 4/7/1
f 5/9/2 13/22/2 18/28/2 14/23/2 6/11/2 17/26/2 9/17/2
f 4/8/3 3/6/3 7/13/3 20/30/3 21/32/3 8/15/3
f 30/47/3 22/34/3 28/44/3 27/43/3
f 19/29/2 12/21/2 1/1/2 2/3/2 15/24/2
f 18/28/2 19/29/2 15/24/2 14/23/2
f 10/19/4 9/18/4 17/27/4 24/38/4
f 2/4/1 1/2/1 22/35/1 30/48/1
f 27/43/1 28/44/1 26/41/1 25/39/1
f 23/37/2 29/46/2 25/40/2 26/42/2
f 5/10/4 9/18/4 10/19/4 11/20/4 20/31/4 7/14/4
f 20/31/4 11/20/4 16/25/4 21/33/4
f 21/33/4 16/25/4 24/38/4 17/27/4 6/12/4 8/16/4
usemtl Suelo
f 31/49/5 32/50/5 34/52/5 33/51/5
