# Blender 3.4.1
# www.blender.org
mtllib pasillo.mtl
o Suelo
v -2.988935 0.000000 1.000000
v 2.988935 0.000000 1.000000
v -2.988935 0.000000 -1.000000
v 2.988935 0.000000 -1.000000
vn -0.0000 1.0000 -0.0000
vt 1.000000 1.000000
vt 0.000000 1.000000
vt 1.000000 0.000000
vt 0.000000 0.000000
s 0
usemtl Suelo
f 1/1/1 2/2/1 4/4/1 3/3/1
o Cube
v -2.977386 0.012138 1.000000
v -2.977386 3.012138 1.000000
v -2.977386 0.012138 -1.000000
v -2.977386 3.012138 -1.000000
v 2.977386 0.012138 1.000000
v 2.977386 3.012138 1.000000
v 2.977386 0.012138 -1.000000
v 2.977386 3.012138 -1.000000
v -2.977386 2.168437 1.000000
v -2.977386 2.162968 -1.000000
v 2.977386 2.180970 -1.000000
v 2.977386 2.180970 1.000000
v -0.502502 0.012138 -1.000000
v -1.365307 0.012138 -1.000000
v -1.365307 3.012138 -1.000000
v -0.502502 3.012138 -1.000000
v 0.595477 3.012138 -1.000000
v 1.786432 3.012138 -1.000000
v -1.797370 0.012138 1.000000
v -0.912688 0.012138 1.000000
v 1.350220 0.012138 1.000000
v 2.229433 0.012138 1.000000
v 2.229433 3.012138 1.000000
v 1.350220 3.012138 1.000000
v -0.912688 3.012138 1.000000
v -1.797370 3.012138 1.000000
v 2.229433 2.168437 1.000000
v 1.350220 2.168437 1.000000
v -0.912688 2.168437 1.000000
v -1.797370 2.168437 1.000000
v -1.365307 2.168437 -1.000000
v -0.502502 2.168437 -1.000000
v -2.977386 0.012138 -0.415371
v -2.977386 0.012138 0.453655
v -2.977386 3.012138 0.453655
v -2.977386 3.012138 -0.415371
v 2.977386 0.012138 0.200403
v 2.977386 0.012138 -0.688828
v 2.977386 3.012138 -0.688828
v 2.977386 3.012138 0.200403
v 2.977386 2.180970 -0.688828
v 2.977386 2.180970 0.200403
v -2.977386 2.162968 0.453655
v -2.977386 2.162968 -0.415371
vn 1.0000 -0.0000 -0.0000
vn -1.0000 -0.0000 -0.0000
vn -0.0000 -0.0000 -1.0000
vn -0.0000 -0.0000 1.0000
vt 1.000000 0.500000
vt 0.000000 0.500000
vt 1.000000 1.000000
vt 0.000000 1.000000
vt 0.500000 0.500000
vt 1.000000 0.000000
vt 0.500000 1.000000
vt 1.000000 0.500000
vt 0.500000 0.500000
vt 0.000000 0.000000
vt 0.500000 1.000000
vt 0.000000 0.500000
vt 0.500000 0.000000
vt 0.500000 0.500000
vt 1.000000 0.859383
vt 0.000000 0.859383
vt 0.500000 0.858472
vt 1.000000 0.358472
vt 0.500000 0.361472
vt 0.500000 0.861472
vt 0.000000 0.361472
vt 0.792193 0.000000
vt 0.864640 0.000000
vt 0.864640 0.500000
vt 0.792193 0.500000
vt 0.700000 0.500000
vt 0.600000 0.500000
vt 0.099082 0.500000
vt 0.173365 0.500000
vt 0.363373 0.500000
vt 0.437197 0.500000
vt 0.437197 1.000000
vt 0.363373 1.000000
vt 0.173365 1.000000
vt 0.099082 1.000000
vt 0.437197 0.859383
vt 0.363373 0.859383
vt 0.173365 0.859383
vt 0.099082 0.859383
vt 0.864640 0.359383
vt 0.792193 0.359383
vt 0.646157 0.500000
vt 0.863414 0.500000
vt 0.863414 1.000000
vt 0.646157 1.000000
vt 0.199899 0.000000
vt 0.422207 0.000000
vt 0.422207 0.500000
vt 0.199899 0.500000
vt 0.422207 0.361472
vt 0.199899 0.361472
vt 0.863414 0.858472
vt 0.646157 0.858472
s 0
usemtl Paredes
f 5/5/2 38/47/2 47/56/2 39/48/2 6/7/2 13/19/2
f 11/17/3 42/51/3 45/54/3 43/52/3 12/18/3 15/23/3
f 34/43/4 13/20/4 6/8/4 30/39/4
f 23/32/4 5/6/4 13/20/4 34/43/4
f 48/57/2 37/46/2 7/9/2 14/21/2 8/11/2 40/49/2
f 7/10/5 18/27/5 35/44/5 19/28/5 8/12/5 14/22/5
f 9/13/4 26/35/4 31/40/4 16/24/4
f 25/34/4 24/33/4 33/42/4 32/41/4
f 16/24/4 31/40/4 27/36/4 10/15/4
f 31/40/4 32/41/4 28/37/4 27/36/4
f 32/41/4 33/42/4 29/38/4 28/37/4
f 33/42/4 34/43/4 30/39/4 29/38/4
f 35/44/5 36/45/5 20/29/5 19/28/5
f 46/55/3 41/50/3 9/14/3 16/25/3 10/16/3 44/53/3
f 45/54/3 46/55/3 44/53/3 43/52/3
f 47/56/2 48/57/2 40/49/2 39/48/2
f 22/31/5 21/30/5 20/29/5 36/45/5 17/26/5 11/17/5 15/23/5 12/18/5
o Techo
v -2.988935 3.014153 1.000000
v 2.988935 3.014153 1.000000
v -2.988935 3.014153 -1.000000
v 2.988935 3.014153 -1.000000
vn -0.0000 1.0000 -0.0000
vt 1.000000 1.000000
vt 0.000000 1.000000
vt 1.000000 0.000000
vt 0.000000 0.000000
s 0
usemtl Techo
f 49/58/6 50/59/6 52/61/6 51/60/6
