# Blender 3.4.1
# www.blender.org
mtllib marcoPuerta.mtl
o s4studio_mesh_0
v -0.375023 0.000000 0.000000
v 0.375023 2.139993 0.000000
v -0.375023 -0.000000 0.088720
v -0.375023 2.139993 0.088720
v 0.375023 2.139993 -0.075993
v -0.375023 0.000000 -0.075993
v -0.375023 2.139993 -0.075993
v 0.375023 2.139993 -0.075993
v -0.375023 2.139993 0.000000
v 0.375023 2.139993 0.000000
v 0.375023 -0.000000 0.088720
v 0.375023 2.139993 0.088720
v -0.375023 2.139993 -0.075993
v 0.375023 0.000000 -0.075993
v -0.375023 2.139993 0.088720
v 0.375023 0.000000 0.000000
v -0.375023 2.139993 0.000000
v 0.375023 2.139993 0.088720
vn -0.0000 -1.0000 -0.0000
vn -1.0000 -0.0000 -0.0000
vn 1.0000 -0.0000 -0.0000
vt 0.380706 0.290861
vt 0.980973 0.037541
vt 0.322262 0.290861
vt 0.600055 0.008772
vt 0.980973 0.068729
vt 0.439151 0.290861
vt 0.600055 0.068729
vt 0.439151 0.965998
vt 0.380706 0.965998
vt 0.380706 0.965998
vt 0.322262 0.290861
vt 0.322262 0.965998
vt 0.439151 0.965998
vt 0.439151 0.290861
vt 0.322262 0.965998
vt 0.380706 0.290861
vt 0.600055 0.037541
vt 0.980973 0.008772
s 1
usemtl DIFFUSE
f 7/7/1 5/5/1 2/2/1
f 7/7/1 2/2/1 17/17/1
f 17/17/1 2/2/1 18/18/1
f 17/17/1 18/18/1 4/4/1
f 16/16/2 8/8/2 14/14/2
f 16/16/2 10/10/2 8/8/2
f 11/11/2 10/10/2 16/16/2
f 11/11/2 12/12/2 10/10/2
f 1/1/3 6/6/3 13/13/3
f 1/1/3 13/13/3 9/9/3
f 1/1/3 9/9/3 15/15/3
f 1/1/3 15/15/3 3/3/3
o s4studio_mesh_1
v -0.375023 2.139993 0.043582
v -0.375023 -0.000000 0.043582
v -0.375023 0.000000 0.000000
v -0.375023 2.139993 0.000000
v 0.375023 2.139993 0.000000
v 0.375023 0.000000 0.000000
v 0.375023 -0.000000 0.043582
v 0.375023 2.139993 0.043582
v 0.375023 -0.000000 0.043582
v 0.375023 0.000000 0.000000
v -0.375023 0.000000 0.000000
v -0.375023 -0.000000 0.043582
v 0.375023 2.139993 0.000000
v 0.375023 2.139993 0.043582
v -0.375023 2.139993 0.043582
v -0.375023 2.139993 0.000000
v -0.353873 1.016664 0.096777
v -0.305255 1.016664 0.096777
v -0.305255 1.065281 0.096777
v -0.363944 1.040927 0.096777
v -0.329518 1.006592 0.079747
v -0.320820 1.032229 0.065373
v -0.375023 2.139993 0.088720
v -0.500000 -0.000000 0.108039
v -0.500000 2.249954 0.108039
v 0.500000 2.249954 0.108039
v -0.500000 2.249954 0.108039
v -0.375023 -0.000000 0.088720
v 0.375023 2.139993 0.088720
v 0.500000 2.249954 0.000000
v -0.500000 2.249954 0.000000
v -0.500000 2.249954 0.108039
v -0.375023 2.139993 0.088720
v 0.500000 2.249954 0.108039
v 0.500000 2.249954 0.108039
v 0.500000 -0.000000 0.108039
v 0.375023 -0.000000 0.088720
v 0.375023 2.139993 0.088720
v 0.500000 -0.000000 0.108039
v 0.500000 0.000000 0.000000
v 0.375023 0.000000 0.000000
v 0.375023 -0.000000 0.088720
v 0.500000 2.249954 0.000000
v 0.500000 0.000000 0.000000
v 0.500000 -0.000000 0.108039
v 0.500000 2.249954 0.108039
v -0.500000 2.249954 0.108039
v -0.500000 -0.000000 0.108039
v -0.500000 0.000000 0.000000
v -0.500000 2.249954 0.000000
v -0.500000 -0.000000 0.108039
v -0.375023 -0.000000 0.088720
v -0.375023 0.000000 0.000000
v -0.500000 0.000000 0.000000
vn -1.0000 -0.0000 -0.0000
vn 1.0000 -0.0000 -0.0000
vn -0.0000 -1.0000 -0.0000
vn -0.0000 1.0000 -0.0000
vn -0.1528 -0.0000 0.9883
vn 0.1528 -0.0000 0.9883
vn -0.0000 -0.1730 0.9849
vt 0.510638 0.967553
vt 0.510638 0.291304
vt 0.458303 0.291304
vt 0.458303 0.967553
vt 0.458303 0.967553
vt 0.458303 0.291304
vt 0.510638 0.291304
vt 0.510638 0.967553
vt 0.993694 0.291304
vt 0.993694 0.268741
vt 0.510638 0.268741
vt 0.510638 0.291304
vt 0.993694 0.990117
vt 0.993694 0.967553
vt 0.510638 0.967553
vt 0.510638 0.990117
vt 0.003892 0.963083
vt 0.080190 0.320102
vt 0.080190 0.996138
vt 0.080312 0.003569
vt 0.080312 0.304046
vt 0.003892 0.320102
vt 0.013167 0.041155
vt 0.139185 0.003569
vt 0.139185 0.304046
vt 0.080312 0.304046
vt 0.013167 0.266490
vt 0.080312 0.003569
vt 0.080190 0.996138
vt 0.080190 0.320102
vt 0.003892 0.320102
vt 0.003892 0.963083
vt 0.557682 0.009499
vt 0.492483 0.009499
vt 0.492483 0.044379
vt 0.546126 0.044379
vt 0.139185 0.996138
vt 0.139185 0.320102
vt 0.080190 0.320102
vt 0.080190 0.996138
vt 0.080190 0.996138
vt 0.080190 0.320102
vt 0.139185 0.320102
vt 0.139185 0.996138
vt 0.557682 0.009499
vt 0.546126 0.044379
vt 0.492483 0.044379
vt 0.492483 0.009499
s 1
usemtl DIFFUSE.001
f 20/20/4 19/19/4 22/22/4
f 20/20/4 22/22/4 21/21/4
f 24/24/5 23/23/5 26/26/5
f 24/24/5 26/26/5 25/25/5
f 28/28/6 27/27/6 30/30/6
f 28/28/6 30/30/6 29/29/6
f 32/32/7 31/31/7 34/34/7
f 32/32/7 34/34/7 33/33/7
f 54/48/8 53/47/8 56/50/8
f 54/48/8 56/50/8 55/49/8
f 58/52/6 57/51/6 60/54/6
f 58/52/6 60/54/6 59/53/6
f 62/56/5 61/55/5 64/58/5
f 62/56/5 64/58/5 63/57/5
f 66/60/4 65/59/4 68/62/4
f 66/60/4 68/62/4 67/61/4
f 70/64/6 69/63/6 72/66/6
f 70/64/6 72/66/6 71/65/6
f 41/35/9 43/37/9 42/36/9
f 41/35/9 42/36/9 46/40/9
f 49/43/7 45/39/7 44/38/7
f 49/43/7 44/38/7 48/42/7
f 51/45/10 47/41/10 52/46/10
f 51/45/10 52/46/10 50/44/10
o s4studio_mesh_2
v -0.375023 2.139993 -0.043582
v -0.375023 2.139993 0.000000
v -0.375023 0.000000 0.000000
v -0.375023 0.000000 -0.043582
v 0.375023 2.139993 0.000000
v 0.375023 2.139993 -0.043582
v 0.375023 0.000000 -0.043582
v 0.375023 0.000000 0.000000
v 0.375023 0.000000 -0.043582
v -0.375023 0.000000 -0.043582
v -0.375023 0.000000 0.000000
v 0.375023 0.000000 0.000000
v 0.375023 2.139993 0.000000
v -0.375023 2.139993 0.000000
v -0.375023 2.139993 -0.043582
v 0.375023 2.139993 -0.043582
v -0.500000 0.000000 0.000000
v -0.375023 0.000000 -0.075993
v -0.500000 0.000000 -0.095038
v -0.500000 2.249954 -0.095037
v -0.500000 2.249954 0.000000
v -0.375023 0.000000 0.000000
v -0.375023 0.000000 -0.075993
v -0.500000 0.000000 -0.095038
v -0.500000 0.000000 0.000000
v -0.500000 2.249954 -0.095037
v -0.375023 2.139993 -0.075993
v -0.500000 0.000000 -0.095038
v 0.500000 2.249954 -0.095037
v 0.375023 2.139993 -0.075993
v 0.375023 0.000000 -0.075993
v 0.500000 0.000000 -0.095038
v 0.500000 2.249954 -0.095037
v 0.500000 2.249954 0.000000
v -0.500000 2.249954 0.000000
v -0.500000 2.249954 -0.095037
v -0.375023 2.139993 -0.075993
v 0.375023 2.139993 -0.075993
v 0.500000 2.249954 -0.095037
v -0.500000 2.249954 -0.095037
v 0.500000 0.000000 -0.095038
v 0.500000 0.000000 0.000000
v 0.500000 2.249954 0.000000
v 0.500000 2.249954 -0.095037
v 0.500000 0.000000 -0.095038
v 0.375023 0.000000 -0.075993
v 0.375023 0.000000 0.000000
v 0.500000 0.000000 0.000000
vn -1.0000 -0.0000 -0.0000
vn 1.0000 -0.0000 -0.0000
vn -0.0000 -1.0000 -0.0000
vn -0.0000 1.0000 -0.0000
vn -0.1506 -0.0000 -0.9886
vn -0.0000 -0.1706 -0.9853
vn 0.1506 -0.0000 -0.9886
vt 0.510638 0.967553
vt 0.458303 0.967553
vt 0.458303 0.291304
vt 0.510638 0.291304
vt 0.458303 0.967553
vt 0.510638 0.967553
vt 0.510638 0.291304
vt 0.458303 0.291304
vt 0.993694 0.291304
vt 0.510638 0.291304
vt 0.510638 0.268741
vt 0.993694 0.268741
vt 0.993694 0.990117
vt 0.510638 0.990117
vt 0.510638 0.967553
vt 0.993694 0.967553
vt 0.464659 0.010016
vt 0.411016 0.044926
vt 0.399460 0.010016
vt 0.236769 0.996138
vt 0.300386 0.996138
vt 0.464659 0.044926
vt 0.160471 0.320102
vt 0.236769 0.320102
vt 0.300386 0.320102
vt 0.236769 0.996138
vt 0.160471 0.963083
vt 0.236769 0.320102
vt 0.236769 0.996138
vt 0.160471 0.963083
vt 0.160471 0.320102
vt 0.236769 0.320102
vt 0.236860 0.003569
vt 0.300386 0.003569
vt 0.300386 0.304046
vt 0.236860 0.304046
vt 0.169716 0.266490
vt 0.169716 0.041155
vt 0.236860 0.003569
vt 0.236860 0.304046
vt 0.236769 0.320102
vt 0.300386 0.320102
vt 0.300386 0.996138
vt 0.236769 0.996138
vt 0.399460 0.010016
vt 0.411016 0.044926
vt 0.464659 0.044926
vt 0.464659 0.010016
s 1
usemtl DIFFUSE.002
f 74/68/11 73/67/11 76/70/11
f 74/68/11 76/70/11 75/69/11
f 78/72/12 77/71/12 80/74/12
f 78/72/12 80/74/12 79/73/12
f 82/76/13 81/75/13 84/78/13
f 82/76/13 84/78/13 83/77/13
f 86/80/14 85/79/14 88/82/14
f 86/80/14 88/82/14 87/81/14
f 102/96/15 101/95/15 104/98/15
f 102/96/15 104/98/15 103/97/15
f 106/100/14 105/99/14 108/102/14
f 106/100/14 108/102/14 107/101/14
f 110/104/16 109/103/16 112/106/16
f 110/104/16 112/106/16 111/105/16
f 114/108/12 113/107/12 116/110/12
f 114/108/12 116/110/12 115/109/12
f 118/112/13 117/111/13 120/114/13
f 118/112/13 120/114/13 119/113/13
f 89/83/13 91/85/13 90/84/13
f 89/83/13 90/84/13 94/88/13
f 97/91/11 93/87/11 92/86/11
f 97/91/11 92/86/11 96/90/11
f 99/93/17 95/89/17 100/94/17
f 99/93/17 100/94/17 98/92/17
